 <svg
      xmlns="http://www.w3.org/2000/svg"
      width="900"
      height="450"
      version="1.1"
      viewBox="0 0 900 450"
    >
      <path
        fill="#012"
        d="M0 119l11.5 8.5C23 136 46 153 69 159.5s46 2.5 69.2-7.3c23.1-9.9 46.5-25.5 69.6-26 23.2-.5 46.2 14.1 69.2 21.8 23 7.7 46 8.3 69 .8 23-7.5 46-23.1 69.2-24.3 23.1-1.2 46.5 12.2 69.6 17.5 23.2 5.3 46.2 2.7 69.2-1.2 23-3.8 46-8.8 69-9 23-.1 46 4.5 69.2 9.2 23.1 4.7 46.5 9.3 69.6 12.8 23.2 3.5 46.2 5.9 69.2-1.6s46-24.9 57.5-33.5L900 110V0H0z"
      ></path>
      <path
        fill="#56335e"
        d="M0 132l11.5.3c11.5.4 34.5 1 57.5-4s46-15.6 69.2-15c23.1.7 46.5 12.7 69.6 19.7 23.2 7 46.2 9 69.2 8.8 23-.1 46-2.5 69-8.8 23-6.3 46-16.7 69.2-19 23.1-2.3 46.5 3.3 69.6 7 23.2 3.7 46.2 5.3 69.2 5.2 23-.2 46-2.2 69-.4 23 1.9 46 7.5 69.2 9.2 23.1 1.7 46.5-.7 69.6-7.7 23.2-7 46.2-18.6 69.2-17.3 23 1.3 46 15.7 57.5 22.8L900 140V0H0z"
      ></path>
      <path
        fill="#c25167"
        d="M0 101l11.5.5C23 102 46 103 69 105.2c23 2.1 46 5.5 69.2 8.3 23.1 2.8 46.5 5.2 69.6 1.2 23.2-4 46.2-14.4 69.2-15.5 23-1.2 46 6.8 69 14 23 7.1 46 13.5 69.2 12 23.1-1.5 46.5-10.9 69.6-13.4 23.2-2.5 46.2 1.9 69.2 3.9s46 1.6 69 3.1 46 4.9 69.2-.1c23.1-5 46.5-18.4 69.6-20.2 23.2-1.8 46.2 7.8 69.2 11.2 23 3.3 46 .3 57.5-1.2L900 107V0H0z"
      ></path>
      <path
        fill="#fb9b43"
        d="M0 112l11.5-6.5C23 99 46 86 69 81s46-2 69.2 2.5c23.1 4.5 46.5 10.5 69.6 12.2 23.2 1.6 46.2-1 69.2-3.2s46-3.8 69-6 46-4.8 69.2-3.7c23.1 1.2 46.5 6.2 69.6 8 23.2 1.9 46.2.5 69.2 1.5s46 4.4 69 2.9c23-1.5 46-7.9 69.2-12 23.1-4.2 46.5-6.2 69.6-7.4 23.2-1.1 46.2-1.5 69.2 0s46 4.9 57.5 6.5L900 84V0H0z"
      ></path>
      <path
        fill="#fcaf3c"
        d="M0 84l11.5 2C23 88 46 92 69 87.7c23-4.4 46-17 69.2-18.2 23.1-1.2 46.5 9.2 69.6 13.2 23.2 4 46.2 1.6 69.2-2.2 23-3.8 46-9.2 69-8.5 23 .7 46 7.3 69.2 11.2 23.1 3.8 46.5 4.8 69.6 0C508 78.3 531 67.7 554 63.7s46-1.4 69 6c23 7.3 46 19.3 69.2 23 23.1 3.6 46.5-1 69.6-6.7C785 80.3 808 73.7 831 73.2s46 5.1 57.5 8L900 84V0H0z"
      ></path>
      <path
        fill="#fb9b43"
        d="M0 42l11.5.7c11.5.6 34.5 2 57.5 3.5s46 3.1 69.2 9.3c23.1 6.2 46.5 16.8 69.6 16.5C231 71.7 254 60.3 277 56.3s46-.6 69 1c23 1.7 46 1.7 69.2 1.7 23.1 0 46.5 0 69.6 3.2C508 65.3 531 71.7 554 75.7s46 5.6 69 1.6c23-4 46-13.6 69.2-13.8 23.1-.2 46.5 9.2 69.6 8.2 23.2-1 46.2-12.4 69.2-17 23-4.7 46-2.7 57.5-1.7l11.5 1V0H0z"
      ></path>
      <path
        fill="#c25167"
        d="M0 64l11.5-3.2C23 57.7 46 51.3 69 48c23-3.3 46-3.7 69.2-4.2 23.1-.5 46.5-1.1 69.6 1C231 47 254 52 277 54.3c23 2.4 46 2 69 3.5s46 4.9 69.2.9c23.1-4 46.5-15.4 69.6-19.4 23.2-4 46.2-.6 69.2 1.5 23 2.2 46 3.2 69 6 23 2.9 46 7.5 69.2 7.5 23.1 0 46.5-4.6 69.6-3.6 23.2 1 46.2 7.6 69.2 9.1s46-2.1 57.5-4L900 54V0H0z"
      ></path>
      <path
        fill="#56335e"
        d="M0 25l11.5 1C23 27 46 29 69 32.3c23 3.4 46 8 69.2 9 23.1 1 46.5-1.6 69.6-4.1 23.2-2.5 46.2-4.9 69.2-7.9s46-6.6 69-8.1 46-.9 69.2-.9c23.1 0 46.5-.6 69.6 1C508 23 531 27 554 27.2c23 .1 46-3.5 69-4.5s46 .6 69.2 5.1c23.1 4.5 46.5 11.9 69.6 13.4 23.2 1.5 46.2-2.9 69.2-6.5 23-3.7 46-6.7 57.5-8.2L900 25V0H0z"
      ></path>
      <path
        fill="#012"
        d="M0 26l11.5-1.8C23 22.3 46 18.7 69 16c23-2.7 46-4.3 69.2-4.5 23.1-.2 46.5 1.2 69.6 4.2 23.2 3 46.2 7.6 69.2 8.6s46-1.6 69-5.8c23-4.2 46-9.8 69.2-8.8 23.1 1 46.5 8.6 69.6 9.8 23.2 1.2 46.2-4.2 69.2-7.7s46-5.1 69-5.5c23-.3 46 .7 69.2 2 23.1 1.4 46.5 3 69.6 4.2 23.2 1.2 46.2 1.8 69.2 2.8 23 1 46 2.4 57.5 3l11.5.7V0H0z"
      ></path>
    </svg>
 